<?xml version="1.0" standalone="no"?>
<!DOCTYPE svg PUBLIC "-//W3C//DTD SVG 20010904//EN"
 "http://www.w3.org/TR/2001/REC-SVG-20010904/DTD/svg10.dtd">
<svg version="1.0" xmlns="http://www.w3.org/2000/svg"
 width="30px" height="30px" viewBox="0 0 512.000000 512.000000"
 preserveAspectRatio="xMidYMid meet">

<g transform="translate(0.000000,512.000000) scale(0.100000,-0.100000)"
fill="#069CE2" stroke="none">
<path d="M1045 4829 c-190 -28 -353 -145 -436 -313 -74 -151 -70 -24 -67
-1989 3 -1687 4 -1764 22 -1817 71 -211 215 -351 419 -408 58 -16 183 -17
1757 -17 l1695 0 43 25 c73 42 113 132 92 209 -11 43 -57 103 -94 124 -16 9
-413 13 -1711 17 l-1690 5 -42 22 c-63 34 -113 113 -113 177 0 74 55 155 125
187 38 18 117 19 1710 19 1598 0 1672 1 1710 19 50 22 91 69 105 119 6 25 10
575 10 1662 0 1754 2 1689 -53 1783 -37 62 -117 132 -185 159 l-57 23 -1317 3
-1318 3 0 -1696 0 -1695 -190 0 -190 0 -2 1692 -3 1693 -80 1 c-44 1 -107 -2
-140 -7z m1963 -938 c46 -23 67 -46 87 -94 40 -95 -7 -212 -100 -247 -46 -18
-119 -14 -163 9 -170 86 -105 351 86 351 32 0 67 -7 90 -19z m-35 -712 c47
-13 106 -63 123 -106 11 -25 14 -122 14 -450 0 -404 -1 -418 -21 -461 -39 -80
-144 -122 -232 -93 -45 15 -102 78 -116 128 -15 52 -15 804 0 856 13 47 77
113 121 126 45 13 66 13 111 0z"/>
</g>
</svg>
