<?xml version="1.0" standalone="no"?>
<!DOCTYPE svg PUBLIC "-//W3C//DTD SVG 20010904//EN"
 "http://www.w3.org/TR/2001/REC-SVG-20010904/DTD/svg10.dtd">
<svg version="1.0" xmlns="http://www.w3.org/2000/svg"
 width="30px" height="30px" viewBox="0 0 512.000000 512.000000"
 preserveAspectRatio="xMidYMid meet">

<g transform="translate(0.000000,512.000000) scale(0.100000,-0.100000)"
fill="#069CE2" stroke="none">
<path d="M1325 4772 c-291 -99 -500 -359 -582 -722 -15 -68 -17 -218 -20
-1640 -3 -1107 -1 -1584 7 -1630 33 -197 185 -366 390 -436 53 -18 116 -19
1565 -19 l1510 0 45 24 c61 32 97 67 128 126 l27 50 0 2020 0 2020 -27 51
c-40 76 -70 107 -140 145 l-63 34 -1380 2 -1380 3 -80 -28z m2537 -509 l378
-378 0 -845 0 -845 -377 -377 -378 -378 -982 0 -983 0 0 1593 c0 877 3 1597 7
1600 3 4 445 7 982 7 l976 0 377 -377z m282 363 c18 -8 46 -31 62 -52 29 -37
29 -40 32 -188 2 -83 2 -177 0 -209 l-3 -57 -260 260 -260 260 198 0 c146 0
206 -4 231 -14z m-2784 -1596 l0 -1590 -63 0 c-135 0 -274 -47 -364 -124 -22
-20 -44 -36 -47 -36 -4 0 -5 604 -3 1343 3 1472 0 1388 62 1554 63 166 194
324 335 401 41 23 76 42 78 42 1 0 2 -715 2 -1590z m2880 -1330 l0 -260 -262
0 -263 0 260 260 c143 143 261 260 262 260 2 0 3 -117 3 -260z m0 -500 l0 -80
-1495 0 -1496 0 -24 -25 c-16 -15 -25 -36 -25 -55 0 -19 9 -40 25 -55 l24 -25
1496 0 1495 0 0 -80 0 -80 -1495 0 -1496 0 -24 -25 c-33 -32 -33 -78 0 -110
l24 -25 1497 0 1497 0 -6 -46 c-3 -34 -13 -55 -36 -78 l-31 -31 -1493 0 -1492
0 -67 32 c-93 44 -151 100 -196 191 -35 72 -37 81 -37 171 0 87 3 102 32 163
17 37 50 87 72 111 44 48 135 101 197 116 23 5 678 9 1547 10 l1507 1 0 -80z"/>
<path d="M2719 3864 c-331 -60 -603 -293 -708 -609 -179 -540 156 -1102 716
-1200 496 -87 971 251 1058 752 47 270 -33 551 -217 761 -207 237 -538 353
-849 296z m356 -169 c206 -56 390 -207 485 -400 59 -120 74 -189 74 -335 0
-146 -15 -215 -74 -335 -96 -195 -278 -344 -490 -401 -89 -25 -291 -25 -380 0
-262 70 -475 282 -547 546 -24 89 -24 289 1 380 80 296 324 514 631 564 56 8
240 -3 300 -19z"/>
<path d="M2817 3496 c-71 -66 -29 -176 68 -176 31 0 49 7 68 24 71 66 29 176
-68 176 -31 0 -49 -7 -68 -24z"/>
<path d="M2725 3175 c-24 -24 -31 -57 -19 -90 9 -23 57 -45 99 -45 l35 0 0
-235 0 -235 -58 0 c-87 0 -135 -45 -111 -107 19 -50 29 -52 249 -52 220 0 230
2 249 52 24 62 -24 107 -111 107 l-58 0 0 270 c0 298 -3 316 -60 345 -19 10
-57 15 -110 15 -73 0 -83 -3 -105 -25z"/>
</g>
</svg>
