<svg width="56" height="52" viewBox="0 0 56 52" fill="none" xmlns="http://www.w3.org/2000/svg">
<rect width="56" height="52" fill="#2C2C2C"/>
<path d="M40.6352 17.5887C40.5384 17.4729 40.4174 17.3797 40.2806 17.3158C40.1438 17.2518 39.9947 17.2187 39.8438 17.2188H19.0486L18.4182 13.7563C18.3319 13.2811 18.0815 12.8512 17.7107 12.5417C17.3399 12.2322 16.8723 12.0626 16.3893 12.0625H14.0625C13.789 12.0625 13.5267 12.1711 13.3333 12.3645C13.1399 12.5579 13.0312 12.8202 13.0312 13.0938C13.0312 13.3673 13.1399 13.6296 13.3333 13.823C13.5267 14.0164 13.789 14.125 14.0625 14.125H16.3828L19.6777 32.2093C19.7747 32.7456 20.0117 33.2468 20.3647 33.662C19.8775 34.1171 19.5259 34.6982 19.3488 35.3409C19.1717 35.9836 19.176 36.6628 19.3614 37.3032C19.5467 37.9436 19.9058 38.5202 20.3988 38.9689C20.8918 39.4177 21.4995 39.7212 22.1544 39.8457C22.8094 39.9702 23.486 39.9108 24.1093 39.6743C24.7325 39.4377 25.2781 39.0331 25.6855 38.5054C26.0929 37.9777 26.3462 37.3474 26.4172 36.6846C26.4883 36.0217 26.3744 35.3521 26.0882 34.75H31.9431C31.7124 35.233 31.593 35.7616 31.5938 36.2969C31.5938 37.0107 31.8054 37.7086 32.202 38.3021C32.5986 38.8957 33.1624 39.3583 33.8219 39.6315C34.4814 39.9047 35.2071 39.9762 35.9073 39.8369C36.6074 39.6976 37.2506 39.3539 37.7553 38.8491C38.2601 38.3443 38.6039 37.7012 38.7432 37.001C38.8824 36.3009 38.8109 35.5752 38.5378 34.9156C38.2646 34.2561 37.8019 33.6924 37.2084 33.2958C36.6148 32.8992 35.917 32.6875 35.2031 32.6875H22.7211C22.4796 32.6875 22.2458 32.6027 22.0604 32.4479C21.875 32.2931 21.7498 32.0782 21.7066 31.8406L21.298 29.5938H36.2511C36.9757 29.5936 37.6772 29.3393 38.2333 28.875C38.7895 28.4106 39.1651 27.7659 39.2946 27.053L40.8621 18.4343C40.8886 18.2854 40.8821 18.1324 40.8429 17.9863C40.8037 17.8401 40.7328 17.7044 40.6352 17.5887ZM35.2031 34.75C35.5091 34.75 35.8081 34.8407 36.0625 35.0107C36.3169 35.1807 36.5152 35.4223 36.6323 35.7049C36.7493 35.9876 36.78 36.2986 36.7203 36.5987C36.6606 36.8987 36.5133 37.1743 36.2969 37.3907C36.0806 37.607 35.805 37.7543 35.5049 37.814C35.2048 37.8737 34.8938 37.8431 34.6112 37.726C34.3285 37.6089 34.0869 37.4107 33.9169 37.1563C33.747 36.9019 33.6563 36.6028 33.6563 36.2969C33.6563 35.8866 33.8192 35.4932 34.1093 35.2031C34.3994 34.913 34.7929 34.75 35.2031 34.75ZM22.8281 34.75C23.1341 34.75 23.4331 34.8407 23.6875 35.0107C23.9419 35.1807 24.1402 35.4223 24.2573 35.7049C24.3743 35.9876 24.405 36.2986 24.3453 36.5987C24.2856 36.8987 24.1383 37.1743 23.9219 37.3907C23.7056 37.607 23.43 37.7543 23.1299 37.814C22.8298 37.8737 22.5188 37.8431 22.2362 37.726C21.9535 37.6089 21.7119 37.4107 21.5419 37.1563C21.372 36.9019 21.2813 36.6028 21.2813 36.2969C21.2813 35.8866 21.4442 35.4932 21.7343 35.2031C22.0244 34.913 22.4179 34.75 22.8281 34.75Z" fill="white"/>
</svg>
