<svg width="56" height="52" viewBox="0 0 56 52" fill="none" xmlns="http://www.w3.org/2000/svg">
<rect x="0.5" y="0.5" width="55" height="51" rx="4.5" fill="white" fill-opacity="0.6" stroke="#2C2C2C"/>
<g clip-path="url(#clip0_66_1897)">
<path d="M40.4398 26.6074C44.5391 26.6074 48 23.1911 48 19.0619C48 14.9326 44.5839 11.5164 40.4398 11.5164C36.3106 11.5164 32.8942 14.9326 32.8942 19.0619C32.8942 23.2208 36.3106 26.6074 40.4398 26.6074ZM20.0758 35.8759H37.4097C37.9889 35.8759 38.4939 35.4006 38.4939 34.7619C38.4939 34.1232 37.9889 33.6479 37.4097 33.6479H20.3283C19.4816 33.6479 18.9618 33.0537 18.8281 32.1477L18.6053 30.5881H37.4395C38.9842 30.5881 39.9792 29.9345 40.5439 28.6571C39.2662 28.6571 38.0631 28.4046 36.9491 27.9145C36.7265 28.2116 36.4441 28.3452 36.0284 28.3452L18.2636 28.3601L17.0011 19.7451H30.9039C30.8296 19.0619 30.8741 18.1706 30.9781 17.5023H16.6744L16.407 15.6159C16.2436 14.4721 15.8426 13.8929 14.3276 13.8929H9.09914C8.505 13.8929 8 14.4128 8 15.0069C8 15.6159 8.505 16.1358 9.09914 16.1358H14.1196L16.4961 32.4448C16.808 34.5539 17.9221 35.8759 20.0758 35.8759ZM40.4547 23.9635C39.9349 23.9635 39.4743 23.607 39.4743 23.0574V19.9679H36.6374C36.1324 19.9679 35.7311 19.5521 35.7311 19.0619C35.7311 18.5717 36.1324 18.1558 36.6374 18.1558H39.4743V15.0812C39.4743 14.5167 39.9349 14.1603 40.4547 14.1603C40.9746 14.1603 41.4199 14.5167 41.4199 15.0812V18.1558H44.2571C44.7621 18.1558 45.178 18.5717 45.178 19.0619C45.178 19.5521 44.7621 19.9679 44.2571 19.9679H41.4199V23.0574C41.4199 23.607 40.9746 23.9635 40.4547 23.9635ZM21.2492 43.0946C22.586 43.0946 23.6554 42.04 23.6554 40.6884C23.6554 39.3516 22.586 38.2821 21.2492 38.2821C19.8975 38.2821 18.8429 39.3516 18.8429 40.6884C18.8429 42.04 19.8975 43.0946 21.2492 43.0946ZM35.1519 43.0946C36.4889 43.0946 37.5581 42.04 37.5581 40.6884C37.5581 39.3516 36.4889 38.2821 35.1519 38.2821C33.8003 38.2821 32.716 39.3516 32.716 40.6884C32.716 42.04 33.8003 43.0946 35.1519 43.0946Z" fill="#00B35D"/>
</g>
<defs>
<clipPath id="clip0_66_1897">
<rect width="40" height="40" fill="white" transform="translate(8 6)"/>
</clipPath>
</defs>
</svg>
