<svg width="64" height="59" viewBox="0 0 64 59" fill="none" xmlns="http://www.w3.org/2000/svg">
<rect x="0.461426" width="63.5385" height="59" fill="white"/>
<g clip-path="url(#clip0_61_907)">
<path d="M46.3564 13.275C42.886 13.275 40.0593 16.1017 40.0593 19.5721C40.0593 23.0426 42.886 25.8693 46.3564 25.8693C49.8268 25.8693 52.6535 23.0426 52.6535 19.5721C52.6535 16.1017 49.8268 13.275 46.3564 13.275ZM46.3564 14.6744C49.0711 14.6744 51.2541 16.8574 51.2541 19.5721C51.2541 22.2869 49.0711 24.4699 46.3564 24.4699C43.6416 24.4699 41.4586 22.2869 41.4586 19.5721C41.4586 16.8574 43.6416 14.6744 46.3564 14.6744ZM46.3564 16.0737C45.9688 16.0737 45.6567 16.3858 45.6567 16.7734V18.8725H43.5577C43.1701 18.8725 42.858 19.1845 42.858 19.5721C42.858 19.9598 43.1701 20.2718 43.5577 20.2718H45.6567V22.3709C45.6567 22.7585 45.9688 23.0705 46.3564 23.0705C46.744 23.0705 47.0561 22.7585 47.0561 22.3709V20.2718H49.1551C49.5427 20.2718 49.8548 19.9598 49.8548 19.5721C49.8548 19.1845 49.5427 18.8725 49.1551 18.8725H47.0561V16.7734C47.0561 16.3858 46.744 16.0737 46.3564 16.0737ZM25.366 31.4667H43.5577C43.9453 31.4667 44.2574 31.7787 44.2574 32.1664C44.2574 32.554 43.9453 32.8661 43.5577 32.8661H25.366C24.9784 32.8661 24.6663 32.554 24.6663 32.1664C24.6663 31.7787 24.9784 31.4667 25.366 31.4667ZM23.9667 25.8693H40.759C41.1466 25.8693 41.4586 26.1813 41.4586 26.5689C41.4586 26.9566 41.1466 27.2686 40.759 27.2686H23.9667C23.579 27.2686 23.267 26.9566 23.267 26.5689C23.267 26.1813 23.579 25.8693 23.9667 25.8693ZM40.759 39.8628C38.8348 39.8628 37.2606 41.4371 37.2606 43.3612C37.2606 45.2854 38.8348 46.8596 40.759 46.8596C42.6831 46.8596 44.2574 45.2854 44.2574 43.3612C44.2574 41.4371 42.6831 39.8628 40.759 39.8628ZM40.759 41.2622C41.926 41.2622 42.858 42.1942 42.858 43.3612C42.858 44.5283 41.926 45.4603 40.759 45.4603C39.5919 45.4603 38.6599 44.5283 38.6599 43.3612C38.6599 42.1942 39.5919 41.2622 40.759 41.2622ZM26.7654 39.8628C24.8413 39.8628 23.267 41.4371 23.267 43.3612C23.267 45.2854 24.8413 46.8596 26.7654 46.8596C28.6895 46.8596 30.2638 45.2854 30.2638 43.3612C30.2638 41.4371 28.6895 39.8628 26.7654 39.8628ZM26.7654 41.2622C27.9324 41.2622 28.8644 42.1942 28.8644 43.3612C28.8644 44.5283 27.9324 45.4603 26.7654 45.4603C25.5983 45.4603 24.6663 44.5283 24.6663 43.3612C24.6663 42.1942 25.5983 41.2622 26.7654 41.2622ZM11.3836 14.6744C10.446 14.6744 10.4362 16.0737 11.3836 16.0737H16.4101C16.5137 16.5705 17.3057 20.3488 18.2489 24.7917C18.7498 27.1511 19.262 29.558 19.6734 31.4611C20.0834 33.3642 20.3801 34.7174 20.4962 35.1456C20.681 35.8369 20.8545 36.6219 21.3638 37.3062C21.8704 37.9891 22.7632 38.4621 23.9667 38.4621H43.5465C44.7499 38.4621 45.6427 37.9891 46.1521 37.3062C46.6601 36.6205 46.8322 35.8369 47.0197 35.1442C47.1414 34.6796 47.3331 33.6007 47.5934 32.2475C47.8495 30.8902 48.1532 29.3187 48.433 28.1236C48.6639 27.2658 47.2352 26.8922 47.0729 27.8074C46.7846 29.0444 46.4753 30.6229 46.2165 31.9831C45.9576 33.3446 45.7309 34.5467 45.6679 34.7818C45.4776 35.4898 45.2999 36.1042 45.0284 36.4694C44.7569 36.836 44.4407 37.0627 43.5479 37.0627H23.9667C23.0739 37.0627 22.7576 36.836 22.4833 36.4694C22.2133 36.1056 22.0355 35.4899 21.8452 34.7832C21.7753 34.5131 21.4534 33.0662 21.042 31.1658C20.632 29.2655 20.1184 26.8614 19.6188 24.4993C18.6169 19.7792 17.6597 15.2299 17.6597 15.2299C17.5926 14.9081 17.3071 14.6758 16.9741 14.6758L11.3836 14.6744ZM22.5701 20.2718C21.6395 20.2718 21.6507 21.6712 22.5701 21.6712H36.5525C37.4929 21.6712 37.4719 20.2718 36.5525 20.2718H22.5701Z" fill="#2C2C2C"/>
</g>
<defs>
<clipPath id="clip0_61_907">
<rect width="41.9808" height="41.9808" fill="white" transform="translate(10.6729 9.07693)"/>
</clipPath>
</defs>
</svg>
